<svg xmlns="http://www.w3.org/2000/svg" width="512" height="512" viewBox="0 0 24 24" fill="none" stroke="#E5A00D" stroke-width="1.5" stroke-linecap="round" stroke-linejoin="round">
  <rect x="2" y="2" width="20" height="20" rx="2" fill="#1a1a1a"/>
  <path d="M4 6a2 2 0 0 1 2 -2h12a2 2 0 0 1 2 2v12a2 2 0 0 1 -2 2h-12a2 2 0 0 1 -2 -2l0 -12"/>
  <path d="M8 4l0 16"/>
  <path d="M16 4l0 16"/>
  <path d="M4 8l4 0"/>
  <path d="M4 16l4 0"/>
  <path d="M4 12l16 0"/>
  <path d="M16 8l4 0"/>
  <path d="M16 16l4 0"/>
</svg>
